Coordinates
version=1
nRows=4
nColumns=63
inDegrees=yes

Units are S.I. units (second, meters, Newtons, ...)
If the header above contains a line with 'inDegrees', this indicates whether rotational values are in degrees (yes) or radians (no).

endheader
time	pelvis_tilt	pelvis_list	pelvis_rotation	pelvis_tx	pelvis_ty	pelvis_tz	hip_flexion_r	hip_adduction_r	hip_rotation_r	knee_angle_r	knee_angle_r_beta	ankle_angle_r	subtalar_angle_r	mtp_angle_r	hip_flexion_l	hip_adduction_l	hip_rotation_l	knee_angle_l	knee_angle_l_beta	ankle_angle_l	subtalar_angle_l	mtp_angle_l	L5_S1_Flex_Ext	L5_S1_Lat_Bending	L5_S1_axial_rotation	L4_L5_Flex_Ext	L4_L5_Lat_Bending	L4_L5_axial_rotation	L3_L4_Flex_Ext	L3_L4_Lat_Bending	L3_L4_axial_rotation	L2_L3_Flex_Ext	L2_L3_Lat_Bending	L2_L3_axial_rotation	L1_L2_Flex_Ext	L1_L2_Lat_Bending	L1_L2_axial_rotation	L1_T12_Flex_Ext	L1_T12_Lat_Bending	L1_T12_axial_rotation	Abs_r3	Abs_r2	Abs_r1	Abs_t1	Abs_t2	neck_flexion	neck_bending	neck_rotation	arm_flex_r	arm_add_r	arm_rot_r	elbow_flex_r	pro_sup_r	wrist_flex_r	wrist_dev_r	arm_flex_l	arm_add_l	arm_rot_l	elbow_flex_l	pro_sup_l	wrist_flex_l	wrist_dev_l
     13.73333333	      6.08047350	      2.92578386	    173.80540306	      0.61694102	      0.89575276	      0.62509575	      9.46937066	      3.78506987	    -17.59037955	     19.24894773	      0.33595752	     24.47690251	     17.10187061	      0.00000000	     33.77080478	    -10.18443421	     -6.27355394	     58.25001418	      1.01665454	     15.02235443	    -16.25656982	      0.00000000	     -0.00808480	      0.35327561	      0.73555597	     -0.01501429	      0.46985656	      0.78152821	     -0.01328252	      0.85895431	      0.78152821	     -0.00924012	      0.85895431	      0.64361147	     -0.00750755	      0.72039962	      0.59763922	     -0.00461966	      0.54722392	      0.55166697	     -0.05774893	      3.99632433	      4.09094161	      0.00000000	      0.00000000	     -0.00000000	      0.00000000	      0.00000000	      3.81555130	    -13.90615514	     17.91174685	     25.08991355	     37.82420884	      0.00000000	      5.00000014	     -8.07510719	    -10.72520557	      3.21617698	     26.56353196	     44.42347040	      0.00000000	      5.00000014
     13.76666667	      6.75980681	      3.05344364	    174.04226201	      0.58424377	      0.89490508	      0.62677184	      7.52164361	      3.77331649	    -17.58033994	     18.47797052	      0.32250142	     25.34336281	     17.31230003	      0.00000000	     36.63510261	    -10.67398902	     -7.21264133	     49.06148380	      0.85628443	     14.34401497	    -15.01131487	      0.00000000	     -0.00321459	      0.38282728	      0.83721595	     -0.00596981	      0.50916028	      0.88954195	     -0.00528125	      0.93080624	      0.88954195	     -0.00367395	      0.93080624	      0.73256396	     -0.00298507	      0.78066139	      0.68023796	     -0.00183682	      0.59299945	      0.62791196	     -0.02296149	      4.33061874	      4.65634394	      0.00000000	      0.00000000	     -0.00000000	      0.00000000	      0.00000000	      6.12719186	    -14.44152523	     17.24703355	     26.48760636	     37.79535678	      0.00000000	      5.00000014	     -9.82403673	    -10.81110494	      3.66335090	     26.39335494	     44.54288423	      0.00000000	      5.00000014
     13.80000000	      7.51731099	      3.61572396	    174.35762470	      0.55138984	      0.89275529	      0.62870247	      5.68033355	      4.25728342	    -17.36091571	     17.80830168	      0.31081350	     26.26361435	     17.36391077	      0.00000000	     38.32886834	    -11.07361230	     -8.60502531	     39.10829507	      0.68256851	     12.10437042	    -12.91626269	      0.00000000	     -0.00349476	      0.46457692	      0.89540341	     -0.00649013	      0.61788731	      0.95136612	     -0.00574155	      1.12957233	      0.95136612	     -0.00399417	      1.12957233	      0.78347798	     -0.00324524	      0.94736526	      0.72751527	     -0.00199691	      0.71962965	      0.67155256	     -0.02496275	      5.25538706	      4.97996515	      0.00000000	      0.00000000	     -0.00000000	      0.00000000	      0.00000000	      8.26579699	    -15.11696589	     16.56716479	     28.21826167	     37.75856510	      0.00000000	      5.00000014	    -11.44564911	    -10.80396128	      4.30215147	     26.43283201	     44.68420506	      0.00000000	      5.00000014
     13.83333333	      8.16489132	      3.69901842	    174.42808431	      0.51689910	      0.88945390	      0.62936386	      3.47579262	      4.53314298	    -15.87775254	     16.67471059	      0.29102860	     27.70673617	     16.58185553	      0.00000000	     38.68416103	    -11.41594207	    -13.40417681	     29.77457455	      0.51966436	     10.65755912	     -5.88176802	      0.00000000	     -0.00383149	      0.47244534	      0.98479187	     -0.00711546	      0.62835230	      1.04634137	     -0.00629475	      1.14870359	      1.04634137	     -0.00437901	      1.14870359	      0.86169289	     -0.00355792	      0.96341053	      0.80014340	     -0.00218931	      0.73181783	      0.73859391	     -0.02736794	      5.34439613	      5.47711697	      0.00000000	      0.00000000	     -0.00000000	      0.00000000	      0.00000000	      9.52834897	    -14.73649354	     13.06776922	     30.37626701	     37.67101631	      0.00000000	      5.00000014	    -12.76731661	    -11.85073398	      8.76818187	     26.42940934	     45.53680653	      0.00000000	      5.00000014
